<svg width="1250" height="368" viewBox="0 0 1250 368" fill="none" xmlns="http://www.w3.org/2000/svg">
<path fill-rule="evenodd" clip-rule="evenodd" d="M57.5 0.713999C55.85 0.941999 50.9 1.998 46.5 3.061C42.1 4.124 34.737 6.842 30.137 9.101C24.131 12.051 19.882 15.081 15.059 19.854C10.838 24.032 7.19003 28.832 5.23703 32.781C3.52803 36.235 1.59303 41.635 0.937028 44.781C0.217028 48.236 -0.0349722 54.26 0.300028 60C0.632028 65.67 1.68303 71.859 2.90903 75.351C4.03803 78.569 5.96603 82.844 7.19303 84.851C8.42103 86.858 11.692 90.918 14.462 93.874C17.233 96.829 22.144 101.047 25.376 103.247C28.608 105.446 35.108 109.027 39.821 111.204C44.534 113.382 54.939 117.562 62.945 120.495C70.95 123.427 79.659 126.758 82.298 127.898C84.937 129.038 89.134 131.372 91.624 133.085C94.114 134.798 97.015 137.617 98.072 139.35C99.301 141.367 99.994 144.336 99.996 147.602C99.999 151.242 99.355 153.661 97.75 156.043C96.513 157.879 93.475 160.41 91 161.667C88.525 162.924 83.212 164.452 79.193 165.062C73.936 165.861 69.147 165.874 62.127 165.11C56.759 164.526 49.365 163.121 45.696 161.988C42.026 160.854 36.156 158.64 32.65 157.068C29.145 155.495 21.603 151.401 15.889 147.97C10.175 144.54 5.16203 141.541 4.75003 141.307C4.33703 141.073 4.00003 150.291 4.00003 161.79V182.698L14.008 187.406C19.512 189.995 26.6 193.018 29.758 194.123C32.916 195.228 39.325 197.021 44 198.107C49.198 199.315 58.134 200.311 67 200.673C76.027 201.041 84.897 200.814 90.5 200.071C95.45 199.416 103.526 197.535 108.446 195.893C113.366 194.251 120.116 191.266 123.446 189.259C126.776 187.253 131.975 183.099 135 180.029C138.025 176.958 141.948 171.722 143.719 168.392C145.489 165.062 147.627 159.692 148.469 156.458C149.311 153.225 150 146.502 150 141.518C150 135.763 149.323 130.015 148.145 125.766C147.124 122.085 144.762 116.532 142.895 113.424C141.028 110.316 136.526 105.012 132.89 101.637C129.255 98.262 122.81 93.518 118.569 91.096C114.327 88.674 104.927 84.35 97.679 81.486C90.43 78.623 80.069 74.56 74.653 72.459C69.236 70.357 62.501 67.257 59.686 65.569C56.871 63.881 53.539 60.971 52.284 59.102C50.783 56.869 50 54.224 50 51.387C50 47.997 50.657 46.321 53.06 43.584C54.866 41.528 58.454 39.181 61.81 37.86C66.579 35.984 69.442 35.621 79.5 35.617C88.42 35.613 93.703 36.16 100.084 37.748C104.805 38.923 112.455 41.199 117.084 42.806C121.713 44.413 128.81 47.139 132.855 48.864C136.9 50.589 140.387 52 140.605 52C140.822 52 141 43.539 141 33.197V14.394L130.981 10.689C125.47 8.651 117.708 6.1 113.731 5.02C109.754 3.941 102.504 2.37 97.619 1.529C92.077 0.574999 83.43 0.0559986 74.619 0.149999C66.854 0.231999 59.15 0.485999 57.5 0.713999ZM778.302 2.103C775.443 3.202 770.763 6.206 767.902 8.778C764.578 11.767 761.671 15.629 759.851 19.478C758.283 22.79 757.001 27.202 757.001 29.282C757 31.362 757.617 34.512 758.371 36.282C759.125 38.052 760.813 40.472 762.121 41.661C763.43 42.849 766.381 44.32 768.68 44.93C771.69 45.729 774.2 45.74 777.639 44.969C780.266 44.38 784.62 42.699 787.314 41.233C790.007 39.767 793.917 36.629 796.003 34.259C798.089 31.89 800.604 28.274 801.592 26.225C802.581 24.176 803.566 19.8 803.782 16.5C804.113 11.455 803.8 9.943 801.818 7C800.521 5.075 797.894 2.713 795.98 1.752C794.066 0.789999 790.475 0.0259989 788 0.0539989C785.525 0.0809989 781.161 1.003 778.302 2.103ZM300 100V198H321H342V155.552V113.104L346.95 107.155C349.673 103.884 353.161 100.321 354.7 99.238C356.24 98.155 359.027 96.488 360.894 95.534C362.941 94.488 366.55 93.8 369.988 93.8C373.709 93.8 377.044 94.492 379.594 95.794C381.742 96.89 384.27 98.639 385.212 99.68C386.153 100.721 387.953 103.807 389.212 106.537C391.4 111.283 391.514 112.759 391.819 140.25C391.994 156.062 392.289 169 392.475 169C392.661 169 395.668 167.722 399.157 166.16C402.646 164.597 408.481 162.329 412.125 161.119C415.769 159.91 421.844 158.349 425.625 157.651L432.5 156.383L432.767 130.533C432.981 109.847 432.726 103.466 431.49 98.591C430.641 95.241 428.808 90.25 427.418 87.5C426.027 84.75 423.576 81.043 421.97 79.263C420.365 77.483 417.03 74.483 414.56 72.598C412.09 70.712 407.532 68.22 404.432 67.06C401.332 65.9 395.517 64.495 391.511 63.938C386.503 63.242 382.084 63.255 377.364 63.982C373.329 64.603 367.46 66.522 363.125 68.636C358.115 71.08 353.545 74.398 348.875 78.986L342 85.739V43.87V2H321H300V100ZM918 36.607C918 69.16 917.896 71.173 916.25 70.529C915.288 70.152 911.271 68.754 907.325 67.422C903.378 66.09 896.628 64.51 892.325 63.911C888.021 63.312 881.575 63.12 878 63.484C874.425 63.848 868.839 64.819 865.587 65.643C862.334 66.466 856.484 68.745 852.587 70.708C847.817 73.109 843.181 76.601 838.409 81.388C833.085 86.727 830.282 90.619 827.164 97C824.879 101.675 822.235 108.425 821.288 112C820.064 116.618 819.566 122.409 819.566 132C819.566 141.573 820.066 147.391 821.284 152C822.229 155.575 824.997 162.55 827.434 167.5C830.294 173.307 833.8 178.521 837.318 182.197C840.317 185.331 845.602 189.725 849.063 191.962C852.524 194.199 858.313 196.971 861.928 198.122C865.73 199.332 872.505 200.431 878.004 200.729C883.484 201.026 889.864 200.755 893.069 200.089C896.128 199.454 901.526 197.566 905.065 195.893C908.604 194.22 912.962 191.737 914.75 190.375L918 187.898V193.449V199H939H960V100.5V2H939H918V36.607ZM224.472 63.983C221.157 64.449 215.712 65.538 212.373 66.403C209.034 67.269 203.647 69.149 200.401 70.583C197.155 72.017 191.731 75.164 188.346 77.577C184.961 79.99 179.905 84.53 177.111 87.665C174.316 90.801 170.217 97.026 168.001 101.498C165.786 105.97 163.312 112.75 162.504 116.564C161.696 120.379 161.027 127.816 161.017 133.09C161.006 139.445 161.677 145.348 163.006 150.59C164.109 154.941 166.432 161.425 168.167 165C170.379 169.556 173.741 173.907 179.411 179.547C184.867 184.974 189.791 188.781 194.537 191.24C198.408 193.245 205.608 196.067 210.537 197.511C217.344 199.505 222.627 200.269 232.5 200.686C242.18 201.096 247.926 200.814 255 199.582C260.225 198.672 268.438 196.749 273.25 195.309L282 192.691V177.762C282 166.21 281.717 162.95 280.75 163.35C280.063 163.635 275.231 165.28 270.013 167.006C264.795 168.732 257.071 170.648 252.849 171.263C247.216 172.084 243.269 172.087 238.017 171.274C234.081 170.665 228.527 169.025 225.674 167.629C222.821 166.233 218.513 163.158 216.102 160.795C213.69 158.433 210.318 153.575 208.608 150C205.712 143.943 205.5 142.749 205.5 132.479C205.5 122.045 205.675 121.103 208.781 114.794C210.87 110.551 213.884 106.492 217.079 103.619C219.839 101.138 224.662 98.113 227.798 96.897C231.772 95.356 236.472 94.546 243.308 94.225C248.94 93.959 255.753 94.277 259.308 94.971C262.714 95.635 268.774 97.445 272.776 98.992L280.051 101.806L279.776 86.653L279.5 71.5L274 69.728C270.975 68.753 264.225 67.091 259 66.034C253.775 64.976 245.225 63.892 240 63.623C234.775 63.355 227.787 63.517 224.472 63.983ZM529 64.136C525.975 64.631 520.302 66.551 516.393 68.401C511.753 70.598 506.806 74.105 502.143 78.504L495 85.242V75.621V66H474.5H454V110.763V155.527L463.25 157.736C468.337 158.951 475.82 161.585 479.877 163.59C483.935 165.595 488.997 168.809 491.127 170.734L495 174.233V143.5V112.768L498.451 108.066C500.349 105.481 504.184 101.231 506.972 98.623C509.761 96.014 513.593 93.232 515.489 92.44C517.385 91.648 521.44 91 524.5 91C527.56 91 531.512 91.62 533.282 92.377C535.052 93.134 537.714 95.047 539.197 96.627C540.68 98.207 542.705 101.3 543.697 103.5C545.333 107.13 545.527 111.684 545.797 152.75L546.095 198H566.599H587.104L586.767 148.75C586.434 100.123 586.4 99.42 584.11 93.21C582.834 89.751 580.08 84.646 577.991 81.865C575.901 79.084 571.894 75.082 569.086 72.973C566.278 70.863 561.527 68.218 558.527 67.096C555.527 65.974 550.244 64.596 546.787 64.035C543.329 63.474 539.15 63.064 537.5 63.124C535.85 63.185 532.025 63.64 529 64.136ZM664.061 64.087C660.519 64.545 654.669 65.832 651.061 66.947C647.452 68.062 641.887 70.442 638.694 72.237C635.5 74.032 630.756 77.286 628.152 79.469C625.547 81.652 621.745 85.477 619.702 87.969C617.66 90.461 614.404 95.515 612.466 99.2C610.529 102.884 608.023 109.409 606.897 113.7C605.397 119.417 604.856 124.571 604.869 133C604.881 140.158 605.479 146.765 606.454 150.5C607.315 153.8 609.843 160.225 612.072 164.778C615.057 170.876 617.947 174.878 623.044 179.975C628.32 185.251 632.167 187.987 639.232 191.489C644.329 194.016 651.875 196.99 656 198.099C660.874 199.409 668.268 200.318 677.114 200.693C685.704 201.057 693.813 200.819 699.09 200.047C703.69 199.375 711.063 197.687 715.476 196.297C719.889 194.907 725.3 192.86 727.5 191.748C729.7 190.636 733.638 188.333 736.25 186.629L741 183.532V170.758V157.985L735.206 161.94C732.019 164.115 725.534 167.755 720.793 170.03C714.745 172.932 709.39 174.637 702.837 175.747C695.252 177.031 691.905 177.126 685 176.253C680.325 175.662 673.8 174.165 670.5 172.927C666.081 171.268 662.896 169.071 658.412 164.588C654.073 160.248 651.744 156.921 650.302 153C649.189 149.975 647.986 145.588 647.627 143.25L646.976 139H695.139H743.301L742.711 128.578C742.272 120.832 741.358 115.89 739.148 109.328C737.513 104.473 734.938 98.301 733.426 95.614C731.914 92.926 728.021 87.889 724.776 84.42C721.53 80.95 716.403 76.471 713.383 74.466C710.362 72.461 704.354 69.53 700.031 67.952C695.709 66.375 688.433 64.615 683.862 64.042C679.292 63.469 674.416 63.057 673.026 63.127C671.637 63.197 667.602 63.629 664.061 64.087ZM1037.47 63.984C1034.16 64.449 1027.64 66.087 1023 67.622C1018.08 69.245 1011.52 72.438 1007.32 75.248C1003.35 77.907 997.83 82.651 995.063 85.791C992.296 88.931 988.223 95.1 986.013 99.5C983.803 103.9 981.231 110.425 980.297 114C979.177 118.291 978.583 124.578 978.551 132.5C978.523 139.375 979.079 146.849 979.853 150C980.597 153.025 982.921 159.1 985.018 163.5C987.263 168.21 991.106 174.008 994.361 177.597C997.403 180.95 1002.82 185.604 1006.41 187.939C1009.99 190.273 1016.27 193.485 1020.37 195.076C1024.47 196.668 1032.03 198.702 1037.16 199.597C1044.15 200.815 1050.15 201.094 1061 200.707C1071.13 200.346 1077.91 199.555 1083.5 198.085C1087.9 196.927 1095.26 194.185 1099.85 191.99C1104.43 189.796 1109.5 187.07 1111.1 185.933L1114 183.864V171.317V158.77L1111.25 160.599C1109.74 161.605 1105.25 164.295 1101.27 166.577C1097.29 168.858 1090.31 171.986 1085.77 173.529C1078.66 175.939 1075.89 176.341 1066 176.385C1057.95 176.42 1052.85 175.931 1049 174.754C1045.98 173.83 1041.04 171.594 1038.04 169.787C1035.03 167.979 1030.86 164.25 1028.77 161.5C1026.68 158.75 1024.07 153.64 1022.98 150.145C1021.89 146.649 1021 142.712 1021 141.395V139H1069H1117V135.072C1117 132.912 1116.51 127.625 1115.92 123.322C1115.33 119.02 1113.66 111.911 1112.21 107.524C1110.74 103.045 1107.46 96.376 1104.75 92.312C1102.08 88.333 1097.39 82.83 1094.31 80.085C1091.23 77.339 1085.64 73.484 1081.9 71.518C1078.16 69.552 1071.73 67.082 1067.62 66.029C1063.5 64.976 1056.39 63.895 1051.81 63.626C1047.24 63.357 1040.79 63.518 1037.47 63.984ZM1216.5 63.881C1214.85 64.316 1211.54 65.678 1209.15 66.907C1206.76 68.136 1202.81 70.976 1200.38 73.217C1197.95 75.458 1193.99 80.264 1191.58 83.896C1189.18 87.528 1185.71 93.537 1183.89 97.25C1182.06 100.963 1180.22 104 1179.79 104C1179.35 104 1179 95.45 1179 85V66H1158.5H1138V132.5V199H1158.46H1178.92L1179.21 169.25L1179.5 139.5L1185.21 127.831C1189.36 119.369 1192.38 114.677 1196.21 110.756C1199.49 107.401 1203.31 104.66 1206.26 103.535C1209.78 102.193 1212.51 101.873 1216.76 102.305C1220.65 102.7 1225.07 104.197 1230.45 106.941C1234.83 109.17 1238.7 110.657 1239.05 110.247C1239.41 109.836 1242.04 101.91 1244.9 92.633C1249.88 76.465 1250.03 75.685 1248.35 73.831C1247.39 72.767 1242.97 70.099 1238.53 67.9C1232.96 65.139 1228.77 63.778 1224.98 63.497C1221.97 63.273 1218.15 63.446 1216.5 63.881ZM760 132.5V199H780.5H801V132.5V66H780.5H760V132.5ZM690.628 90.786C692.899 91.958 696.587 94.996 698.824 97.538C701.062 100.079 703.573 104.261 704.405 106.829C705.237 109.398 706.048 112.85 706.209 114.5L706.5 117.5L678.066 117.766C662.427 117.912 649.281 117.681 648.851 117.251C648.422 116.822 648.66 113.936 649.38 110.838C650.101 107.74 651.862 103.204 653.295 100.759C654.728 98.314 657.5 95.093 659.454 93.603C661.408 92.112 664.693 90.247 666.753 89.458C669.212 88.516 673.251 88.131 678.5 88.339C684.229 88.565 687.672 89.26 690.628 90.786ZM1065.24 91.293C1067.74 92.76 1071.03 95.432 1072.55 97.23C1074.07 99.029 1076.15 102.372 1077.17 104.659C1078.18 106.947 1079.3 110.885 1079.64 113.409L1080.27 118H1051H1021.73L1022.36 113.409C1022.7 110.885 1023.83 106.924 1024.85 104.609C1025.87 102.293 1028.19 98.711 1030 96.648C1031.82 94.585 1034.69 92.178 1036.39 91.297C1038.09 90.417 1040.62 89.328 1041.99 88.876C1043.37 88.425 1048.14 88.184 1052.59 88.341C1059.24 88.574 1061.5 89.102 1065.24 91.293ZM911.25 94.734L918 97.895V130.359V162.822L914.857 165.466C913.129 166.921 909.417 169.299 906.607 170.751C902.379 172.937 900.124 173.401 893.5 173.446C886.703 173.492 884.646 173.081 879.818 170.71C876.694 169.175 872.759 166.35 871.075 164.432C869.39 162.514 867.107 159.171 866.001 157.003C864.895 154.835 863.318 150.478 862.495 147.32C861.673 144.163 861 137.494 861 132.5C861 127.506 861.697 120.742 862.55 117.47C863.402 114.197 865.084 109.548 866.288 107.139C867.491 104.729 870.63 100.821 873.262 98.454C875.895 96.087 879.951 93.451 882.275 92.597C885.2 91.522 889.268 91.126 895.5 91.309C903.184 91.535 905.487 92.036 911.25 94.734ZM433 178.457C432.175 178.656 428.125 179.368 424 180.038C419.875 180.708 412 182.81 406.5 184.708C401 186.606 392.283 190.368 387.128 193.068C381.973 195.768 374.126 200.57 369.689 203.739C365.252 206.907 357.301 213.628 352.019 218.673C346.738 223.718 340.268 230.58 337.642 233.923L332.867 240H344.934C351.57 240 357 240.336 357 240.747C357 241.157 355.838 244.982 354.418 249.247L351.836 257H336.93H322.025L318.513 263.975C316.581 267.811 315 271.186 315 271.475C315 271.764 322.844 272 332.431 272H349.862L347.091 280.25L344.32 288.5L326.778 288.773L309.236 289.045L308.118 296.563C307.503 300.698 307.008 307.326 307.017 311.291C307.027 315.256 307.696 321.65 308.504 325.5C309.313 329.35 311.553 335.709 313.483 339.632C315.986 344.718 318.848 348.499 323.459 352.813C327.108 356.227 332.666 360.154 336.213 361.826C339.671 363.456 345.739 365.512 349.697 366.395C353.656 367.278 361.235 368 366.54 368C372.354 368 380.221 367.178 386.343 365.931C391.929 364.793 401 362.101 406.5 359.949C412 357.797 419.994 354.043 424.264 351.608C428.534 349.172 435.718 344.551 440.23 341.34C444.742 338.128 452.746 331.225 458.018 326C463.289 320.775 469.743 313.688 472.36 310.25L477.117 304H461.558C449.768 304 446.005 303.697 446.019 302.75C446.029 302.063 447.077 298.125 448.348 294L450.658 286.5L469.328 286.228L487.997 285.956L491.511 278.978L495.025 272H475.179C464.264 272 455.085 271.751 454.78 271.447C454.476 271.143 454.864 268.781 455.642 266.197C456.42 263.614 457.511 259.813 458.067 257.75L459.077 254H479.519H499.962L500.731 251.25C501.154 249.738 501.474 242.425 501.442 235C501.393 223.602 501.028 220.488 499.099 215C497.843 211.425 494.835 205.52 492.416 201.878C489.996 198.236 485.65 193.449 482.758 191.24C479.866 189.031 475.225 186.085 472.446 184.694C469.666 183.303 464.716 181.44 461.446 180.554C458.175 179.668 450.775 178.752 445 178.518C439.225 178.285 433.825 178.257 433 178.457ZM474.96 217.75C474.938 218.713 473.893 224.225 472.637 230L470.355 240.5L456.034 241C444.724 241.395 441.534 241.815 440.863 243C440.396 243.825 436.633 257.289 432.502 272.92C428.044 289.785 423.99 303.047 422.531 305.537C421.178 307.845 417.468 312.121 414.286 315.038C410.784 318.249 405.342 321.812 400.5 324.066C396.1 326.114 390.115 328.287 387.201 328.895C384.171 329.527 371.463 330 357.53 330H333.158L336.1 318.75C337.718 312.563 339.288 306.712 339.589 305.75C340.074 304.194 341.67 304 354.012 304C366.979 304 368.056 303.853 370.442 301.75C372.647 299.807 373.82 296.018 379.027 274C382.344 259.975 386.175 246.195 387.54 243.379C388.904 240.562 391.925 236.095 394.252 233.451C396.579 230.807 401.101 226.952 404.301 224.884C407.501 222.816 412.905 220.22 416.31 219.116C419.714 218.012 423.625 216.92 425 216.69C426.375 216.46 438.188 216.211 451.25 216.136C473.268 216.01 474.997 216.128 474.96 217.75ZM546 280V337H579H612V330V323H587H562V304.5V286H585.5H609V279V272H585.5H562V254.5V237H586H610V230V223H578H546V280ZM651 280V337H658H665V280V223H658H651V280ZM1101.52 234.25C1099.62 236.037 1097.79 238.699 1097.45 240.163C1096.99 242.13 1097.4 243.4 1099.02 245.018C1100.71 246.711 1101.91 247.067 1104.32 246.586C1106.03 246.244 1108.65 244.798 1110.13 243.373C1111.62 241.947 1113.12 239.658 1113.47 238.285C1113.85 236.748 1113.49 234.867 1112.52 233.394C1111.45 231.752 1110.02 231 1107.96 231C1105.96 231 1103.83 232.076 1101.52 234.25ZM923.25 259.904C915.962 266.843 910 272.832 910 273.212C910 273.593 912.813 274.039 916.25 274.202L922.5 274.5L923 299C923.419 319.52 923.776 324.004 925.199 326.602C926.133 328.307 928.484 331.095 930.422 332.797C932.36 334.499 935.645 336.363 937.723 336.94C939.8 337.517 943.853 337.991 946.729 337.994C949.605 337.997 954.892 337.037 958.479 335.859L965 333.719V326.905V320.092L959.75 322.536C956.163 324.206 952.725 324.984 948.896 324.99C944.349 324.998 942.801 324.545 940.686 322.585C939.253 321.257 937.823 319.12 937.507 317.835C937.192 316.551 937.061 306.275 937.217 295L937.5 274.5L949.25 274.218L961 273.937V267.968V262H949.042H937.084L936.792 254.644L936.5 247.287L923.25 259.904ZM731.223 261.006C728.87 261.5 724.66 263.149 721.867 264.669C719.074 266.189 715.052 269.407 712.928 271.819C710.804 274.232 708.132 278.703 706.99 281.756C705.848 284.808 704.652 290.724 704.331 294.903C703.92 300.27 704.219 304.33 705.35 308.735C706.23 312.164 708.047 317.132 709.386 319.775C710.725 322.418 713.92 326.515 716.485 328.879C719.05 331.244 723.253 334.118 725.824 335.266C728.834 336.609 733.364 337.509 738.54 337.791C742.963 338.032 749.067 337.713 752.105 337.082C755.144 336.451 760.413 334.619 763.815 333.01L770 330.085V323.058V316.03L764.25 318.901C761.087 320.479 756.719 322.338 754.542 323.032C752.366 323.725 747.641 324.309 744.042 324.33C739.462 324.356 736.078 323.731 732.757 322.243C730.149 321.075 726.825 318.855 725.372 317.31C723.918 315.764 721.9 312.7 720.886 310.5C719.873 308.3 719.034 305.262 719.022 303.75L719 301H745H771V295.71C771 292.801 770.32 287.81 769.489 284.62C768.658 281.429 766.82 276.843 765.404 274.427C763.989 272.012 761.406 268.831 759.665 267.359C757.924 265.888 754.686 263.878 752.47 262.892C750.253 261.907 745.528 260.877 741.97 260.604C738.411 260.33 733.575 260.511 731.223 261.006ZM841 260.691C839.625 260.921 836.395 261.785 833.822 262.611C831.249 263.437 827.317 265.436 825.084 267.054C822.851 268.672 819.474 272.359 817.58 275.248C815.685 278.137 813.381 283.146 812.459 286.38C811.219 290.731 810.89 294.89 811.196 302.38C811.541 310.808 812.064 313.444 814.327 318.143C815.821 321.246 819.093 325.674 821.597 327.982C824.101 330.291 828.704 333.376 831.825 334.84C837.041 337.285 838.47 337.491 849.5 337.389C856.833 337.321 863.25 336.721 866 335.848L870.5 334.419L870.794 327.209C870.955 323.244 870.955 320 870.794 320.001C870.632 320.001 868.106 320.911 865.18 322.023C862.253 323.135 857.272 324.316 854.11 324.646C850.152 325.06 846.594 324.733 842.685 323.597C839.563 322.689 835.405 320.539 833.446 318.818C831.486 317.097 828.959 313.879 827.83 311.667C826.702 309.455 825.548 305.105 825.266 302.001C824.932 298.312 825.326 294.39 826.404 290.683C827.311 287.562 829.461 283.405 831.182 281.446C832.903 279.486 836.153 276.928 838.405 275.761C841.396 274.211 844.277 273.649 849.092 273.674C854.241 273.701 856.978 274.332 861.592 276.556C864.841 278.123 867.837 279.576 868.25 279.785C868.663 279.995 869 276.803 869 272.692V265.217L865.198 263.696C863.107 262.859 858.749 261.685 855.514 261.087C852.279 260.489 848.253 260.061 846.566 260.136C844.88 260.211 842.375 260.461 841 260.691ZM1034 262.258C1031.53 263.577 1027.7 266.878 1025.5 269.592C1023.3 272.307 1020.74 275.647 1019.8 277.014C1018.14 279.442 1018.1 279.297 1018.05 270.75L1018 262H1011H1004V299.5V337H1010.93H1017.87L1018.19 313.25C1018.48 291.154 1018.65 289.221 1020.66 285.5C1021.85 283.3 1024.1 280.291 1025.66 278.814C1027.22 277.336 1029.77 275.649 1031.32 275.064C1032.86 274.479 1035.24 274 1036.61 274C1037.97 274 1040.75 274.901 1042.79 276.003C1044.83 277.104 1047.47 278.703 1048.65 279.555C1050.72 281.052 1050.92 280.891 1054.57 274.893L1058.34 268.681L1055.42 266.344C1053.81 265.058 1051.12 263.348 1049.44 262.545C1047.75 261.741 1044.6 260.808 1042.44 260.471C1039.39 259.997 1037.49 260.4 1034 262.258ZM1183 260.691C1181.63 260.921 1178.35 261.799 1175.73 262.642C1173.11 263.485 1168.75 265.92 1166.05 268.054C1162.39 270.952 1160.17 273.892 1157.32 279.663C1153.53 287.329 1153.5 287.491 1153.5 299.457C1153.5 311.053 1153.63 311.779 1156.76 318.153C1158.57 321.834 1161.85 326.441 1164.14 328.507C1166.41 330.555 1170.79 333.415 1173.88 334.865C1179.03 337.281 1180.5 337.491 1191.5 337.389C1198.83 337.321 1205.25 336.721 1208 335.848L1212.5 334.419L1212.79 327.248L1213.09 320.078L1207.29 322.076C1204.11 323.175 1198.99 324.338 1195.93 324.661C1192.14 325.059 1188.53 324.715 1184.64 323.584C1181.14 322.567 1177.4 320.551 1175.02 318.396C1172.86 316.445 1170.31 312.783 1169.31 310.186C1168.12 307.111 1167.54 303.094 1167.61 298.5C1167.68 294.495 1168.41 289.947 1169.32 287.871C1170.21 285.875 1172.12 282.817 1173.59 281.077C1175.05 279.336 1178.11 276.951 1180.38 275.776C1183.33 274.245 1186.34 273.635 1191 273.622C1196.15 273.608 1198.75 274.207 1203.5 276.504C1206.8 278.099 1209.84 279.576 1210.25 279.785C1210.66 279.995 1211 276.803 1211 272.692V265.217L1207.2 263.696C1205.11 262.859 1200.75 261.685 1197.51 261.087C1194.28 260.489 1190.25 260.061 1188.57 260.136C1186.88 260.211 1184.38 260.461 1183 260.691ZM1098 299.5V337H1105.5H1113V299.5V262H1105.5H1098V299.5ZM748.002 274.516C749.379 275.22 751.274 276.645 752.214 277.684C753.154 278.723 754.616 281.23 755.462 283.254C756.308 285.279 757 288.075 757 289.468V292H738C720.356 292 719 291.871 719 290.196C719 289.204 720.157 286.071 721.571 283.234C723.172 280.02 725.474 277.252 727.679 275.89C729.624 274.687 732.63 273.356 734.358 272.932C736.086 272.509 739.3 272.404 741.5 272.699C743.7 272.995 746.626 273.812 748.002 274.516Z" fill="white"/>
</svg>
